<svg width="121" height="111" viewBox="0 0 121 111" fill="none" xmlns="http://www.w3.org/2000/svg">
<path fill-rule="evenodd" clip-rule="evenodd" d="M43.3034 4.95361C32.9045 12.103 27.6028 25.3217 31.0471 38.262C35.408 54.6424 52.1304 64.3635 68.402 59.9735C81.6981 56.3882 90.5733 44.4916 91.0001 31.3244C89.1607 42.1287 81.2804 51.4141 70.07 54.4367C54.7121 58.5787 38.9304 49.4052 34.8159 33.9476C31.9247 23.0858 35.5613 12.0153 43.3034 4.95361Z" fill="#4F6466"/>
<path fill-rule="evenodd" clip-rule="evenodd" d="M77.3913 47.3145C86.1673 41.2815 90.6394 30.1263 87.7331 19.2101C84.0545 5.38929 69.9408 -2.81603 56.2119 0.890281C44.9925 3.91584 37.5029 13.9547 37.1452 25.0645C38.699 15.9455 45.3471 8.1123 54.8053 5.56175C67.7649 2.06722 81.0821 9.80661 84.5534 22.8528C86.9938 32.0112 83.9252 41.3541 77.3913 47.3145Z" fill="#22C7B8"/>
<path fill-rule="evenodd" clip-rule="evenodd" d="M75.4829 43.0635L71.149 33.0429C70.6681 31.8568 69.3818 31.2638 68.1525 31.5331L59.4818 33.527V24.1538C59.4818 22.6954 58.3066 21.5125 56.861 21.5125C55.4154 21.5125 54.2372 22.6985 54.2372 24.1538L54.2913 36.8127C54.2913 37.6236 54.6129 38.4284 55.2561 38.9125C55.8422 39.451 56.7017 39.6144 57.4501 39.451L67.1908 37.1879L70.6711 45.1633C71.0438 46.1345 72.0085 46.7275 73.0274 46.7275C73.4001 46.7275 73.7217 46.673 74.0943 46.5671C75.4318 45.9741 76.0208 44.4099 75.4829 43.0635Z" fill="#4F6466"/>
<path fill-rule="evenodd" clip-rule="evenodd" d="M61.7298 15.909C61.7298 13.5945 59.8574 11.761 57.6093 11.761C55.3612 11.761 53.4888 13.5915 53.4888 15.909C53.4888 18.2266 55.3071 20.0056 57.6093 20.0056C59.9115 20.0056 61.7298 18.1722 61.7298 15.909Z" fill="#4F6466"/>
<path fill-rule="evenodd" clip-rule="evenodd" d="M64.1402 40.5856C64.8886 40.4253 65.691 40.3163 66.4935 40.1015C66.6017 40.4253 66.8151 40.749 66.9233 41.1242C64.8886 44.2496 61.3031 46.5671 57.2367 46.5671C50.8681 46.5671 45.7288 41.2875 45.7288 34.8764C45.7288 30.4591 48.4577 26.6892 52.0432 24.7468V27.8177C49.9003 29.4334 48.3495 32.0202 48.3495 34.9308C48.3495 39.8322 52.3107 43.8744 57.1826 43.8744C60.0167 43.8744 62.5323 42.6309 64.1402 40.5856Z" fill="#22C7B8"/>
<path d="M31.897 70.55V88H28.397V76.65L23.722 88H21.072L16.372 76.65V88H12.872V70.55H16.847L22.397 83.525L27.947 70.55H31.897ZM38.8573 73.375V77.75H44.7323V80.525H38.8573V85.15H45.4823V88H35.3573V70.525H45.4823V73.375H38.8573ZM54.763 70.55C56.5963 70.55 58.2047 70.9083 59.588 71.625C60.988 72.3417 62.063 73.3667 62.813 74.7C63.5797 76.0167 63.963 77.55 63.963 79.3C63.963 81.05 63.5797 82.5833 62.813 83.9C62.063 85.2 60.988 86.2083 59.588 86.925C58.2047 87.6417 56.5963 88 54.763 88H48.663V70.55H54.763ZM54.638 85.025C56.4713 85.025 57.888 84.525 58.888 83.525C59.888 82.525 60.388 81.1167 60.388 79.3C60.388 77.4833 59.888 76.0667 58.888 75.05C57.888 74.0167 56.4713 73.5 54.638 73.5H52.163V85.025H54.638ZM70.0829 85.225H75.8329V88H66.5829V70.55H70.0829V85.225ZM81.5575 70.55V88H78.0575V70.55H81.5575ZM95.7905 70.55V73.375H88.5155V77.85H94.0905V80.625H88.5155V88H85.0155V70.55H95.7905ZM101.772 73.375V77.75H107.647V80.525H101.772V85.15H108.397V88H98.2724V70.525H108.397V73.375H101.772Z" fill="#536462"/>
<path d="M23.8773 100.242V110H22.6033V105.576H17.6333V110H16.3593V100.242H17.6333V104.526H22.6033V100.242H23.8773ZM34.1026 105.87C34.1026 106.113 34.0886 106.369 34.0606 106.64H27.9286C27.9753 107.396 28.2319 107.989 28.6986 108.418C29.1746 108.838 29.7486 109.048 30.4206 109.048C30.9713 109.048 31.4286 108.922 31.7926 108.67C32.1659 108.409 32.4273 108.063 32.5766 107.634H33.9486C33.7433 108.371 33.3326 108.973 32.7166 109.44C32.1006 109.897 31.3353 110.126 30.4206 110.126C29.6926 110.126 29.0393 109.963 28.4606 109.636C27.8913 109.309 27.4433 108.847 27.1166 108.25C26.7899 107.643 26.6266 106.943 26.6266 106.15C26.6266 105.357 26.7853 104.661 27.1026 104.064C27.4199 103.467 27.8633 103.009 28.4326 102.692C29.0113 102.365 29.6739 102.202 30.4206 102.202C31.1486 102.202 31.7926 102.361 32.3526 102.678C32.9126 102.995 33.3419 103.434 33.6406 103.994C33.9486 104.545 34.1026 105.17 34.1026 105.87ZM32.7866 105.604C32.7866 105.119 32.6793 104.703 32.4646 104.358C32.2499 104.003 31.9559 103.737 31.5826 103.56C31.2186 103.373 30.8126 103.28 30.3646 103.28C29.7206 103.28 29.1699 103.485 28.7126 103.896C28.2646 104.307 28.0079 104.876 27.9426 105.604H32.7866ZM36.3583 106.136C36.3583 105.352 36.5169 104.666 36.8343 104.078C37.1516 103.481 37.5856 103.019 38.1363 102.692C38.6963 102.365 39.3169 102.202 39.9983 102.202C40.6703 102.202 41.2536 102.347 41.7483 102.636C42.2429 102.925 42.6116 103.289 42.8543 103.728V102.328H44.1423V110H42.8543V108.572C42.6023 109.02 42.2243 109.393 41.7203 109.692C41.2256 109.981 40.6469 110.126 39.9843 110.126C39.3029 110.126 38.6869 109.958 38.1363 109.622C37.5856 109.286 37.1516 108.815 36.8343 108.208C36.5169 107.601 36.3583 106.911 36.3583 106.136ZM42.8543 106.15C42.8543 105.571 42.7376 105.067 42.5043 104.638C42.2709 104.209 41.9536 103.882 41.5523 103.658C41.1603 103.425 40.7263 103.308 40.2503 103.308C39.7743 103.308 39.3403 103.42 38.9483 103.644C38.5563 103.868 38.2436 104.195 38.0103 104.624C37.7769 105.053 37.6603 105.557 37.6603 106.136C37.6603 106.724 37.7769 107.237 38.0103 107.676C38.2436 108.105 38.5563 108.437 38.9483 108.67C39.3403 108.894 39.7743 109.006 40.2503 109.006C40.7263 109.006 41.1603 108.894 41.5523 108.67C41.9536 108.437 42.2709 108.105 42.5043 107.676C42.7376 107.237 42.8543 106.729 42.8543 106.15ZM48.6192 99.64V110H47.3452V99.64H48.6192ZM53.3945 103.378V107.9C53.3945 108.273 53.4738 108.539 53.6325 108.698C53.7912 108.847 54.0665 108.922 54.4585 108.922H55.3965V110H54.2485C53.5392 110 53.0072 109.837 52.6525 109.51C52.2978 109.183 52.1205 108.647 52.1205 107.9V103.378H51.1265V102.328H52.1205V100.396H53.3945V102.328H55.3965V103.378H53.3945ZM61.7981 102.188C62.3768 102.188 62.8994 102.314 63.3661 102.566C63.8328 102.809 64.1968 103.177 64.4581 103.672C64.7288 104.167 64.8641 104.769 64.8641 105.478V110H63.6041V105.66C63.6041 104.895 63.4128 104.311 63.0301 103.91C62.6474 103.499 62.1248 103.294 61.4621 103.294C60.7901 103.294 60.2534 103.504 59.8521 103.924C59.4601 104.344 59.2641 104.955 59.2641 105.758V110H57.9901V99.64H59.2641V103.42C59.5161 103.028 59.8614 102.725 60.3001 102.51C60.7481 102.295 61.2474 102.188 61.7981 102.188ZM72.3016 106.15C72.3016 105.357 72.4603 104.666 72.7776 104.078C73.0949 103.481 73.5336 103.019 74.0936 102.692C74.6629 102.365 75.3116 102.202 76.0396 102.202C76.9823 102.202 77.7569 102.431 78.3636 102.888C78.9796 103.345 79.3856 103.98 79.5816 104.792H78.2096C78.0789 104.325 77.8223 103.957 77.4396 103.686C77.0663 103.415 76.5996 103.28 76.0396 103.28C75.3116 103.28 74.7236 103.532 74.2756 104.036C73.8276 104.531 73.6036 105.235 73.6036 106.15C73.6036 107.074 73.8276 107.788 74.2756 108.292C74.7236 108.796 75.3116 109.048 76.0396 109.048C76.5996 109.048 77.0663 108.917 77.4396 108.656C77.8129 108.395 78.0696 108.021 78.2096 107.536H79.5816C79.3763 108.32 78.9656 108.95 78.3496 109.426C77.7336 109.893 76.9636 110.126 76.0396 110.126C75.3116 110.126 74.6629 109.963 74.0936 109.636C73.5336 109.309 73.0949 108.847 72.7776 108.25C72.4603 107.653 72.3016 106.953 72.3016 106.15ZM81.8555 106.136C81.8555 105.352 82.0142 104.666 82.3315 104.078C82.6489 103.481 83.0829 103.019 83.6335 102.692C84.1935 102.365 84.8142 102.202 85.4955 102.202C86.1675 102.202 86.7509 102.347 87.2455 102.636C87.7402 102.925 88.1089 103.289 88.3515 103.728V102.328H89.6395V110H88.3515V108.572C88.0995 109.02 87.7215 109.393 87.2175 109.692C86.7229 109.981 86.1442 110.126 85.4815 110.126C84.8002 110.126 84.1842 109.958 83.6335 109.622C83.0829 109.286 82.6489 108.815 82.3315 108.208C82.0142 107.601 81.8555 106.911 81.8555 106.136ZM88.3515 106.15C88.3515 105.571 88.2349 105.067 88.0015 104.638C87.7682 104.209 87.4509 103.882 87.0495 103.658C86.6575 103.425 86.2235 103.308 85.7475 103.308C85.2715 103.308 84.8375 103.42 84.4455 103.644C84.0535 103.868 83.7409 104.195 83.5075 104.624C83.2742 105.053 83.1575 105.557 83.1575 106.136C83.1575 106.724 83.2742 107.237 83.5075 107.676C83.7409 108.105 84.0535 108.437 84.4455 108.67C84.8375 108.894 85.2715 109.006 85.7475 109.006C86.2235 109.006 86.6575 108.894 87.0495 108.67C87.4509 108.437 87.7682 108.105 88.0015 107.676C88.2349 107.237 88.3515 106.729 88.3515 106.15ZM94.1165 103.574C94.3405 103.135 94.6578 102.795 95.0685 102.552C95.4885 102.309 95.9971 102.188 96.5945 102.188V103.504H96.2585C94.8305 103.504 94.1165 104.279 94.1165 105.828V110H92.8425V102.328H94.1165V103.574ZM106.115 105.87C106.115 106.113 106.101 106.369 106.073 106.64H99.9411C99.9878 107.396 100.244 107.989 100.711 108.418C101.187 108.838 101.761 109.048 102.433 109.048C102.984 109.048 103.441 108.922 103.805 108.67C104.178 108.409 104.44 108.063 104.589 107.634H105.961C105.756 108.371 105.345 108.973 104.729 109.44C104.113 109.897 103.348 110.126 102.433 110.126C101.705 110.126 101.052 109.963 100.473 109.636C99.9038 109.309 99.4558 108.847 99.1291 108.25C98.8024 107.643 98.6391 106.943 98.6391 106.15C98.6391 105.357 98.7978 104.661 99.1151 104.064C99.4324 103.467 99.8758 103.009 100.445 102.692C101.024 102.365 101.686 102.202 102.433 102.202C103.161 102.202 103.805 102.361 104.365 102.678C104.925 102.995 105.354 103.434 105.653 103.994C105.961 104.545 106.115 105.17 106.115 105.87ZM104.799 105.604C104.799 105.119 104.692 104.703 104.477 104.358C104.262 104.003 103.968 103.737 103.595 103.56C103.231 103.373 102.825 103.28 102.377 103.28C101.733 103.28 101.182 103.485 100.725 103.896C100.277 104.307 100.02 104.876 99.9551 105.604H104.799Z" fill="#576A69" fill-opacity="0.8"/>
</svg>
