<svg width="12" height="13" viewBox="0 0 12 13" fill="none" xmlns="http://www.w3.org/2000/svg">
<path d="M3.79156 11.0768H3.79799" stroke="white" stroke-width="1.1875" stroke-linecap="round" stroke-linejoin="round"/>
<path d="M8.93811 11.0768H8.94452" stroke="white" stroke-width="1.1875" stroke-linecap="round" stroke-linejoin="round"/>
<path d="M2.3526 3.79141H4.81417C6.1536 3.79141 7.49305 3.79141 8.8325 3.79141C9.09236 3.78003 9.35188 3.81996 9.59626 3.90891C9.71669 3.95679 9.82475 4.03135 9.91228 4.12701C9.99976 4.22265 10.0645 4.3369 10.1015 4.46114C10.1312 4.74365 10.095 5.02919 9.99575 5.29536C9.93108 5.5773 9.8724 5.88284 9.81362 6.14132C9.68433 6.72883 9.55514 7.3163 9.4494 7.90381C9.42422 8.18733 9.31591 8.45709 9.13803 8.67925C9.02601 8.78172 8.89425 8.86015 8.75076 8.90963C8.60722 8.95911 8.45517 8.9787 8.30381 8.96707C7.79853 8.96707 7.28746 8.96707 6.77634 8.96707H4.91399C4.64049 8.99349 4.36506 8.99349 4.09154 8.96707C3.94846 8.95154 3.8121 8.89825 3.69646 8.8125C3.58082 8.7268 3.49008 8.61186 3.43356 8.4795C3.33651 8.15171 3.25999 7.81812 3.20445 7.48082C3.15745 7.2164 3.0987 6.95208 3.03995 6.68772C2.83433 5.70659 2.59934 4.73725 2.3526 3.79141ZM2.3526 3.79141C2.19985 3.16868 2.04124 2.54595 1.88849 1.92322" stroke="white" stroke-width="0.59375" stroke-linecap="round" stroke-linejoin="round"/>
<path d="M9.73723 6.49976H2.99884" stroke="white" stroke-width="0.59375" stroke-linecap="round" stroke-linejoin="round"/>
</svg>
