<svg width="49" height="49" viewBox="0 0 49 49" fill="none" xmlns="http://www.w3.org/2000/svg">
<path d="M36.8575 34.2426H12.1424C11.5998 34.2426 11.0794 34.0271 10.6956 33.6434C10.3119 33.2597 10.0964 32.7392 10.0964 32.1966V33.0523C10.0964 33.5949 10.3119 34.1154 10.6956 34.4991C11.0794 34.8828 11.5998 35.0984 12.1424 35.0984H36.8575C37.4002 35.0984 37.9206 34.8828 38.3043 34.4991C38.688 34.1154 38.9036 33.5949 38.9036 33.0523V32.1966C38.9036 32.7392 38.688 33.2597 38.3043 33.6434C37.9206 34.0271 37.4002 34.2426 36.8575 34.2426Z" fill="#E0E1E2"/>
<path d="M36.8576 35.4569H12.1424C11.5049 35.4562 10.8936 35.2027 10.4428 34.7519C9.99203 34.3011 9.73849 33.6898 9.73785 33.0523V15.0776C9.73849 14.4399 9.99195 13.8284 10.4427 13.3772C10.8934 12.926 11.5047 12.6719 12.1424 12.6707H36.8576C37.4953 12.6719 38.1066 12.926 38.5573 13.3772C39.008 13.8284 39.2615 14.4399 39.2621 15.0776V33.0523C39.2615 33.6898 39.008 34.3011 38.5572 34.7519C38.1063 35.2027 37.4951 35.4562 36.8576 35.4569ZM12.1424 13.3877C11.6947 13.3884 11.2654 13.5667 10.949 13.8835C10.6326 14.2004 10.4549 14.6299 10.4549 15.0776V33.0523C10.4556 33.4996 10.6336 33.9285 10.9499 34.2448C11.2662 34.5611 11.6951 34.7391 12.1424 34.7398H36.8576C37.3049 34.7391 37.7338 34.5611 38.0501 34.2448C38.3664 33.9285 38.5444 33.4996 38.5451 33.0523V15.0776C38.5451 14.6299 38.3674 14.2004 38.051 13.8835C37.7346 13.5667 37.3053 13.3884 36.8576 13.3877H12.1424Z" fill="#2E3A58"/>
<path d="M36.5588 29.4526H12.8333V30.4211H36.5588V29.4526Z" fill="#E0E1E2"/>
<path d="M20.3505 28.224C20.266 28.224 20.1843 28.1939 20.1199 28.1392C20.0556 28.0845 20.0128 28.0086 19.9992 27.9252L18.3451 18.0057L16.8632 20.8955C16.8329 20.9544 16.787 21.0039 16.7305 21.0385C16.674 21.073 16.6091 21.0914 16.5429 21.0915H13.0388C12.9437 21.0915 12.8525 21.0538 12.7852 20.9865C12.718 20.9193 12.6802 20.8281 12.6802 20.733C12.6802 20.6379 12.718 20.5467 12.7852 20.4795C12.8525 20.4122 12.9437 20.3745 13.0388 20.3745H16.3254L18.2017 16.715C18.2357 16.6474 18.2902 16.5923 18.3575 16.5575C18.4247 16.5228 18.5012 16.5103 18.576 16.5217C18.6509 16.5331 18.7201 16.5679 18.774 16.6211C18.8278 16.6742 18.8634 16.7431 18.8757 16.8178L20.2406 25.0211L20.6493 20.3816C20.6565 20.2922 20.6972 20.2088 20.7632 20.1481C20.8293 20.0874 20.9158 20.0539 21.0055 20.0542H23.9526L25.0474 18.1659C25.0817 18.1067 25.1322 18.0587 25.193 18.0273C25.2538 17.996 25.3222 17.9827 25.3903 17.9889C25.4584 17.9952 25.5233 18.0208 25.5773 18.0628C25.6313 18.1047 25.6722 18.1612 25.6951 18.2256L26.7731 21.2397L27.624 20.09C27.6578 20.0453 27.7015 20.0091 27.7517 19.9842C27.8019 19.9593 27.8572 19.9464 27.9133 19.9466H29.5721L30.6788 17.0759C30.7062 17.0044 30.7558 16.9435 30.8203 16.9022C30.8848 16.8609 30.9609 16.8414 31.0373 16.8465C31.1138 16.8516 31.1866 16.881 31.2451 16.9304C31.3036 16.9799 31.3447 17.0468 31.3624 17.1213L33.081 24.359L33.3224 20.1211C33.3273 20.0298 33.3669 19.9438 33.4331 19.8807C33.4993 19.8176 33.5871 19.7822 33.6785 19.7817H36.5612C36.6563 19.7817 36.7474 19.8194 36.8147 19.8867C36.8819 19.9539 36.9197 20.0451 36.9197 20.1402C36.9197 20.2353 36.8819 20.3265 36.8147 20.3937C36.7474 20.461 36.6563 20.4987 36.5612 20.4987H34.0179L33.657 26.852C33.6526 26.9384 33.6172 27.0204 33.5571 27.0827C33.4971 27.145 33.4165 27.1835 33.3303 27.191C33.2441 27.1986 33.1581 27.1748 33.0881 27.1239C33.0181 27.073 32.9689 26.9985 32.9495 26.9142L30.9321 18.4121L30.1505 20.4342C30.1252 20.5018 30.0798 20.56 30.0204 20.601C29.961 20.642 29.8905 20.6639 29.8183 20.6637H28.0925L26.95 22.2054C26.9113 22.2577 26.8591 22.2985 26.7991 22.3234C26.739 22.3484 26.6732 22.3565 26.6089 22.3469C26.5445 22.3373 26.484 22.3104 26.4338 22.2691C26.3835 22.2277 26.3455 22.1735 26.3237 22.1122L25.2792 19.1937L24.4689 20.592C24.4382 20.6466 24.3934 20.6921 24.3392 20.7236C24.285 20.7552 24.2233 20.7716 24.1606 20.7712H21.3329L20.7091 27.8965C20.7015 27.9837 20.6624 28.0652 20.599 28.1255C20.5356 28.1858 20.4523 28.2208 20.3649 28.224H20.3505Z" fill="#2E3A58"/>
<path d="M15.4673 28.3005H14.0905V29.0175H15.4673V28.3005Z" fill="#2E3A58"/>
<path d="M38.0694 31.9384H36.6353C36.6038 31.9378 36.5737 31.925 36.5514 31.9027C36.5291 31.8805 36.5164 31.8504 36.5157 31.8189C36.5157 31.7872 36.5283 31.7568 36.5507 31.7344C36.5732 31.712 36.6036 31.6994 36.6353 31.6994H38.0694C38.1011 31.6994 38.1315 31.712 38.1539 31.7344C38.1763 31.7568 38.1889 31.7872 38.1889 31.8189C38.1889 31.8506 38.1763 31.881 38.1539 31.9034C38.1315 31.9258 38.1011 31.9384 38.0694 31.9384ZM35.2011 31.9384H33.767C33.7355 31.9378 33.7054 31.925 33.6831 31.9027C33.6608 31.8805 33.6481 31.8504 33.6474 31.8189C33.6474 31.7872 33.66 31.7568 33.6825 31.7344C33.7049 31.712 33.7353 31.6994 33.767 31.6994H35.2011C35.2328 31.6994 35.2632 31.712 35.2856 31.7344C35.308 31.7568 35.3206 31.7872 35.3206 31.8189C35.3206 31.8506 35.308 31.881 35.2856 31.9034C35.2632 31.9258 35.2328 31.9384 35.2011 31.9384ZM32.3328 31.9384H30.8987C30.8672 31.9378 30.8371 31.925 30.8148 31.9027C30.7926 31.8805 30.7798 31.8504 30.7792 31.8189C30.7792 31.7872 30.7917 31.7568 30.8142 31.7344C30.8366 31.712 30.867 31.6994 30.8987 31.6994H32.3328C32.3645 31.6994 32.3949 31.712 32.4173 31.7344C32.4397 31.7568 32.4523 31.7872 32.4523 31.8189C32.4523 31.8506 32.4397 31.881 32.4173 31.9034C32.3949 31.9258 32.3645 31.9384 32.3328 31.9384ZM29.4645 31.9384H28.0304C27.9989 31.9378 27.9688 31.925 27.9465 31.9027C27.9243 31.8805 27.9115 31.8504 27.9109 31.8189C27.9109 31.7872 27.9235 31.7568 27.9459 31.7344C27.9683 31.712 27.9987 31.6994 28.0304 31.6994H29.4645C29.4962 31.6994 29.5266 31.712 29.549 31.7344C29.5714 31.7568 29.584 31.7872 29.584 31.8189C29.584 31.8506 29.5714 31.881 29.549 31.9034C29.5266 31.9258 29.4962 31.9384 29.4645 31.9384ZM26.5962 31.9384H25.1621C25.1306 31.9378 25.1005 31.925 25.0783 31.9027C25.056 31.8805 25.0432 31.8504 25.0426 31.8189C25.0426 31.7872 25.0552 31.7568 25.0776 31.7344C25.1 31.712 25.1304 31.6994 25.1621 31.6994H26.5962C26.6279 31.6994 26.6583 31.712 26.6807 31.7344C26.7031 31.7568 26.7157 31.7872 26.7157 31.8189C26.7157 31.8506 26.7031 31.881 26.6807 31.9034C26.6583 31.9258 26.6279 31.9384 26.5962 31.9384ZM23.7279 31.9384H22.2938C22.2623 31.9378 22.2322 31.925 22.21 31.9027C22.1877 31.8805 22.1749 31.8504 22.1743 31.8189C22.1743 31.7872 22.1869 31.7568 22.2093 31.7344C22.2317 31.712 22.2621 31.6994 22.2938 31.6994H23.7279C23.7596 31.6994 23.79 31.712 23.8124 31.7344C23.8349 31.7568 23.8475 31.7872 23.8475 31.8189C23.8475 31.8506 23.8349 31.881 23.8124 31.9034C23.79 31.9258 23.7596 31.9384 23.7279 31.9384ZM20.8596 31.9384H19.4255C19.394 31.9378 19.364 31.925 19.3417 31.9027C19.3194 31.8805 19.3066 31.8504 19.306 31.8189C19.306 31.7872 19.3186 31.7568 19.341 31.7344C19.3634 31.712 19.3938 31.6994 19.4255 31.6994H20.8596C20.8913 31.6994 20.9217 31.712 20.9442 31.7344C20.9666 31.7568 20.9792 31.7872 20.9792 31.8189C20.9792 31.8506 20.9666 31.881 20.9442 31.9034C20.9217 31.9258 20.8913 31.9384 20.8596 31.9384ZM17.9914 31.9384H16.5572C16.5257 31.9378 16.4957 31.925 16.4734 31.9027C16.4511 31.8805 16.4383 31.8504 16.4377 31.8189C16.4377 31.7872 16.4503 31.7568 16.4727 31.7344C16.4951 31.712 16.5255 31.6994 16.5572 31.6994H17.9914C18.0231 31.6994 18.0534 31.712 18.0759 31.7344C18.0983 31.7568 18.1109 31.7872 18.1109 31.8189C18.1109 31.8506 18.0983 31.881 18.0759 31.9034C18.0534 31.9258 18.0231 31.9384 17.9914 31.9384ZM15.1231 31.9384H13.6889C13.6574 31.9378 13.6274 31.925 13.6051 31.9027C13.5828 31.8805 13.57 31.8504 13.5694 31.8189C13.5694 31.7872 13.582 31.7568 13.6044 31.7344C13.6268 31.712 13.6572 31.6994 13.6889 31.6994H15.1231C15.1548 31.6994 15.1852 31.712 15.2076 31.7344C15.23 31.7568 15.2426 31.7872 15.2426 31.8189C15.2426 31.8506 15.23 31.881 15.2076 31.9034C15.1852 31.9258 15.1548 31.9384 15.1231 31.9384ZM12.2548 31.9384H10.8206C10.7891 31.9378 10.7591 31.925 10.7368 31.9027C10.7145 31.8805 10.7017 31.8504 10.7011 31.8189C10.7011 31.7872 10.7137 31.7568 10.7361 31.7344C10.7585 31.712 10.7889 31.6994 10.8206 31.6994H12.2548C12.2865 31.6994 12.3169 31.712 12.3393 31.7344C12.3617 31.7568 12.3743 31.7872 12.3743 31.8189C12.3743 31.8506 12.3617 31.881 12.3393 31.9034C12.3169 31.9258 12.2865 31.9384 12.2548 31.9384Z" fill="#2E3A58"/>
<path d="M13.6005 32.8922H12.6516V33.8408H13.6005V32.8922Z" fill="#2E3A58"/>
<path d="M15.5318 32.8922H14.5829V33.8408H15.5318V32.8922Z" fill="#2E3A58"/>
<path d="M13.0388 35.0983H17.4583V36.3436C17.4583 36.4557 17.4362 36.5667 17.3934 36.6702C17.3505 36.7737 17.2876 36.8678 17.2084 36.947C17.1291 37.0263 17.0351 37.0891 16.9316 37.132C16.828 37.1749 16.7171 37.197 16.605 37.197H13.8945C13.7824 37.197 13.6714 37.1749 13.5679 37.132C13.4644 37.0891 13.3703 37.0263 13.2911 36.947C13.2118 36.8678 13.149 36.7737 13.1061 36.6702C13.0632 36.5667 13.0411 36.4557 13.0411 36.3436V35.0983H13.0388Z" fill="#E0E1E2"/>
<path d="M35.4999 37.197H32.7894C32.6773 37.197 32.5663 37.1749 32.4628 37.132C32.3593 37.0891 32.2652 37.0263 32.186 36.947C32.1067 36.8678 32.0439 36.7737 32.001 36.6702C31.9581 36.5667 31.936 36.4557 31.936 36.3436V35.0983H36.3532V36.3436C36.3532 36.4557 36.3311 36.5667 36.2883 36.6702C36.2454 36.7737 36.1825 36.8678 36.1033 36.947C36.024 37.0263 35.93 37.0891 35.8264 37.132C35.7229 37.1749 35.612 37.197 35.4999 37.197Z" fill="#E0E1E2"/>
<path d="M16.605 37.5555H13.8945C13.5729 37.5555 13.2644 37.4279 13.0367 37.2007C12.8091 36.9735 12.6809 36.6653 12.6802 36.3437V35.0983C12.6802 35.0033 12.718 34.9121 12.7852 34.8448C12.8525 34.7776 12.9437 34.7398 13.0388 34.7398H17.4583C17.5534 34.7398 17.6446 34.7776 17.7119 34.8448C17.7791 34.9121 17.8169 35.0033 17.8169 35.0983V36.3437C17.8169 36.6651 17.6892 36.9733 17.4619 37.2006C17.2347 37.4278 16.9264 37.5555 16.605 37.5555ZM13.3973 35.4569V36.3437C13.3979 36.4751 13.4506 36.6009 13.5438 36.6937C13.6369 36.7864 13.763 36.8384 13.8945 36.8384H16.605C16.67 36.8384 16.7343 36.8256 16.7944 36.8008C16.8544 36.7759 16.9089 36.7395 16.9549 36.6935C17.0008 36.6476 17.0373 36.593 17.0621 36.533C17.087 36.473 17.0998 36.4086 17.0998 36.3437V35.4569H13.3973Z" fill="#2E3A58"/>
<path d="M35.4999 37.5555H32.7894C32.468 37.5555 32.1597 37.4278 31.9325 37.2006C31.7052 36.9733 31.5775 36.6651 31.5775 36.3437V35.0983C31.5775 35.0033 31.6153 34.9121 31.6825 34.8448C31.7498 34.7776 31.841 34.7398 31.9361 34.7398H36.3556C36.4507 34.7398 36.5419 34.7776 36.6091 34.8448C36.6764 34.9121 36.7141 35.0033 36.7141 35.0983V36.3437C36.7135 36.6653 36.5853 36.9735 36.3577 37.2007C36.13 37.4279 35.8215 37.5555 35.4999 37.5555ZM32.2946 35.4569V36.3437C32.2946 36.4749 32.3467 36.6007 32.4395 36.6935C32.5323 36.7863 32.6581 36.8384 32.7894 36.8384H35.4999C35.6313 36.8384 35.7574 36.7864 35.8506 36.6937C35.9438 36.6009 35.9964 36.4751 35.9971 36.3437V35.4569H32.2946Z" fill="#2E3A58"/>
<path d="M36.5612 30.7792H12.8332C12.7381 30.7792 12.6469 30.7414 12.5797 30.6742C12.5124 30.6069 12.4747 30.5157 12.4747 30.4206V15.0896C12.4747 14.9945 12.5124 14.9033 12.5797 14.8361C12.6469 14.7689 12.7381 14.7311 12.8332 14.7311H36.5612C36.6562 14.7311 36.7474 14.7689 36.8147 14.8361C36.8819 14.9033 36.9197 14.9945 36.9197 15.0896V30.4206C36.9197 30.4677 36.9104 30.5143 36.8924 30.5578C36.8744 30.6013 36.848 30.6409 36.8147 30.6742C36.7814 30.7075 36.7419 30.7339 36.6984 30.7519C36.6549 30.7699 36.6082 30.7792 36.5612 30.7792ZM13.1917 30.0621H36.2026V15.4482H13.1917V30.0621Z" fill="#2E3A58"/>
</svg>
