<svg width="55" height="48" viewBox="0 0 55 48" fill="none" xmlns="http://www.w3.org/2000/svg">
<path d="M36.8622 4.29785C37.3751 4.29785 37.7958 4.71122 37.7958 5.22656C37.7957 5.74181 37.3751 6.15527 36.8622 6.15527C33.7727 6.1553 30.9909 8.1435 29.995 11.0195L29.9042 11.3008C29.7807 11.7145 29.3938 11.9764 28.9803 11.9629L28.9579 11.9893L28.744 11.9258C28.2519 11.78 27.9676 11.2638 28.1161 10.7695L28.2274 10.4229C29.453 6.86816 32.848 4.29787 36.8622 4.29785Z" fill="#3467A6" stroke="#F9FFF9" stroke-width="0.696111"/>
<path d="M45.0534 33.6905H41.5429C41.2198 33.6905 40.9577 33.4304 40.9577 33.1096C40.9577 32.7889 41.2198 32.5287 41.5429 32.5287H45.0534C49.8926 32.5287 53.83 28.6197 53.83 23.8153C53.83 19.0109 49.8926 15.1018 45.0534 15.1018H44.969C44.7993 15.1018 44.638 15.0288 44.5268 14.9014C44.4157 14.774 44.3655 14.6051 44.3898 14.4383C44.442 14.0765 44.4683 13.713 44.4683 13.3591C44.4683 9.19533 41.0559 5.80739 36.8619 5.80739C35.2303 5.80739 33.6744 6.3136 32.362 7.27166C32.0736 7.48203 31.6641 7.38867 31.4973 7.07374C27.7807 0.0473934 18.0732 -0.896173 13.0403 5.21613C10.9202 7.79116 10.0872 11.1409 10.7547 14.4056C10.8282 14.7661 10.5503 15.1022 10.1813 15.1022H9.94683C5.10763 15.1022 1.17027 19.0113 1.17027 23.8157C1.17027 28.6201 5.10763 32.5292 9.94683 32.5292H13.4574C13.7805 32.5292 14.0425 32.7893 14.0425 33.1101C14.0425 33.4308 13.7805 33.691 13.4574 33.691H9.94683C4.46227 33.691 0 29.2608 0 23.8157C0 18.5233 4.21522 14.1898 9.48751 13.9508C8.99226 10.5637 9.9393 7.14716 12.1343 4.48089C17.5226 -2.06374 27.8491 -1.33017 32.2143 5.96757C33.6069 5.10078 35.2004 4.64606 36.8617 4.64606C41.9429 4.64606 45.9693 8.93975 45.617 13.9562C50.8407 14.247 55 18.5577 55 23.8152C55 29.2608 50.5377 33.6905 45.0532 33.6905L45.0534 33.6905Z" fill="#3467A6"/>
<path d="M27.4218 17.9111C35.6773 17.9112 42.3973 24.5789 42.3973 32.7812C42.3973 40.9835 35.6774 47.6523 27.4218 47.6523C19.1662 47.6523 12.4462 40.9837 12.4462 32.7812C12.4462 24.579 19.1661 17.9111 27.4218 17.9111ZM27.4218 19.7686C20.1913 19.7686 14.3125 25.609 14.3124 32.7812C14.3124 39.9537 20.1914 45.7939 27.4218 45.7939C34.6521 45.7939 40.5311 39.9535 40.5311 32.7812C40.531 25.609 34.652 19.7686 27.4218 19.7686Z" fill="#3467A6" stroke="#F9FFF9" stroke-width="0.696111"/>
<path d="M27.6899 26.7974C28.116 26.7975 28.466 27.1408 28.4663 27.5698V38.6274C28.4663 39.0572 28.116 39.4007 27.6899 39.4009C27.2636 39.4009 26.9136 39.0569 26.9136 38.6274V27.5698C26.9138 27.1407 27.2637 26.7974 27.6899 26.7974Z" fill="#3467A6" stroke="#483EA8" stroke-width="0.696111"/>
<path d="M27.1406 27.0239C27.4436 26.7226 27.9343 26.7231 28.2373 27.0239L31.6641 30.4263L31.7178 30.4849C31.9673 30.7888 31.949 31.2366 31.6641 31.52L31.665 31.521C31.551 31.6347 31.4099 31.7048 31.2637 31.7329L31.1162 31.7466C30.9437 31.7466 30.7693 31.6898 30.627 31.5747L30.5684 31.521L27.6895 28.6626L24.8105 31.521C24.5265 31.8034 24.0781 31.8205 23.7734 31.5737L23.7139 31.521C23.4099 31.2188 23.4099 30.7285 23.7139 30.4263L27.1406 27.0249V27.0239Z" fill="#3467A6" stroke="#483EA8" stroke-width="0.696111"/>
</svg>
